<svg xmlns="http://www.w3.org/2000/svg" width="340" height="80" viewBox="0 0 340 80">
<g transform="translate(8,12)">
<path d="M 47.41 41.74 L 46.58 42.39 L 45.73 42.99 L 44.86 43.54 L 43.99 44.04 L 43.1 44.48 L 42.2 44.88 L 41.3 45.23 L 40.4 45.54 L 39.5 45.79 L 38.6 46.0 L 37.7 46.16 L 36.81 46.27 L 35.92 46.34 L 35.05 46.37 L 34.19 46.36 L 33.35 46.3 L 32.52 46.21 L 31.7 46.08 L 30.91 45.91 L 30.14 45.7 L 29.39 45.47 L 28.66 45.2 L 27.95 44.89 L 27.27 44.56 L 26.62 44.21 L 26.0 43.83 L 25.4 43.42 L 24.83 42.99 L 24.29 42.54 L 23.78 42.07 L 23.3 41.59 L 22.85 41.09 L 22.44 40.57 L 22.05 40.05 L 21.69 39.51 L 21.37 38.97 L 21.08 38.42 L 20.81 37.86 L 20.58 37.3 L 20.38 36.74 L 20.21 36.17 L 20.07 35.61 L 19.95 35.05 L 19.87 34.49 L 19.81 33.94 L 19.78 33.39 L 19.78 32.85 L 19.8 32.32 L 19.85 31.79 L 19.93 31.28 L 20.02 30.78 L 20.14 30.29 L 20.28 29.82 L 20.44 29.36 L 20.62 28.91 L 20.82 28.48 L 21.03 28.07 L 21.26 27.67 L 21.51 27.29 L 21.77 26.92 L 22.05 26.58 L 22.34 26.25 L 22.63 25.95 L 22.94 25.66 L 23.26 25.39 L 23.58 25.14 L 23.92 24.91 L 24.25 24.7 L 24.6 24.51 L 24.94 24.33 L 25.29 24.18 L 25.64 24.05 L 26.0 23.93 L 26.35 23.84 L 26.7 23.76 L 27.05 23.7 L 27.39 23.65 L 27.74 23.63 L 28.08 23.62 L 28.41 23.63 L 28.74 23.65 L 29.06 23.69 L 29.38 23.74 L 29.69 23.81 L 29.99 23.89 L 30.28 23.99 L 30.56 24.09 L 30.83 24.21 L 31.1 24.34 L 31.35 24.48 L 31.59 24.63 L 31.82 24.79 L 32.04 24.96 L 32.25 25.14 L 32.45 25.32 L 32.63 25.51 L 32.81 25.71 L 32.97 25.91 L 33.12 26.11 L 33.25 26.32 L 33.38 26.53 L 33.49 26.75 L 33.59 26.97 L 33.68 27.19 L 33.76 27.4 L 33.82 27.62 L 33.88 27.84 L 33.92 28.06 L 33.95 28.28 L 33.97 28.5 L 33.98 28.71 L 33.98 28.92 L 33.97 29.13 L 33.95 29.33 L 33.92 29.53 L 33.88 29.72 L 33.84 29.91 L 33.78 30.1 L 33.72 30.27 L 33.65 30.45 L 33.57 30.61 L 33.48 30.78 L 33.39 30.93 L 33.29 31.08 L 33.19 31.22 L 33.08 31.35 L 32.97 31.48 L 32.85 31.6 L 32.73 31.71 L 32.61 31.81 L 32.48 31.91 L 32.35 32.0 L 32.22 32.08 L 32.09 32.15 L 31.95 32.22 L 31.82 32.27 L 31.68 32.33 L 31.54 32.37 L 31.4 32.41 L 31.27 32.44 L 31.13 32.46 L 31.0 32.47 L 30.86 32.48 L 30.73 32.49 L 30.6 32.48 L 30.47 32.47 L 30.35 32.46 L 30.23 32.43 L 30.11 32.41 L 29.99 32.38 L 29.88 32.34 L 29.77 32.3 L 29.66 32.25 L 29.56 32.2 L 29.46 32.14 L 29.37 32.08 L 29.28 32.02 L 29.19 31.95 L 29.11 31.89 L 29.04 31.81 L 28.96 31.74 L 28.9 31.66 L 28.84 31.58 L 28.78 31.5 L 28.73 31.42 L 28.68 31.34 L 28.63 31.26 L 28.6 31.17 L 28.56 31.09 L 28.53 31.0 L 28.51 30.91 L 28.49 30.83 L 28.47 30.74 L 28.46 30.66 L 28.45 30.58 L 28.45 30.49 L 28.45 30.41 L 28.45 30.33 L 28.46 30.25 L 28.47 30.17 L 28.49 30.1 L 28.51 30.02 L 28.53 29.95 L 28.56 29.88 L 28.58 29.82 L 28.61 29.75 L 28.65 29.69 L 28.68 29.63 L 28.72 29.57 L 28.76 29.52 L 28.8 29.47 L 28.85 29.42 L 28.89 29.37 L 28.94 29.33 L 28.99 29.29 L 29.04 29.25 L 29.09 29.22 L 29.14 29.19 L 29.19 29.16 L 29.25 29.13 L 29.3 29.11 L 29.35 29.09 L 29.41 29.07 L 29.46 29.06 L 29.51 29.05 L 29.57 29.04 L 29.62 29.04 L 29.67 29.03 L 29.72 29.03 L 29.77 29.03 L 29.82 29.04 L 29.87 29.04 L 29.92 29.05 L 29.96 29.06 L 30.01 29.08 L 30.05 29.09 L 30.1 29.11 L 30.14 29.13 L 30.18 29.15 L 30.22 29.17 L 30.25 29.19 L 30.29 29.22 L 30.32 29.24 L 30.35 29.27 L 30.38 29.3 L 30.41 29.33 L 30.43 29.36 L 30.46 29.39 L 30.48 29.42 L 30.5 29.45 L 30.52 29.48 L 30.53 29.52 L 30.55 29.55 L 30.56 29.58 L 30.57 29.61 L 30.58 29.65 L 30.59 29.68 L 30.6 29.71 L 30.6 29.75 L 30.6 29.78" fill="none" stroke="#0d7d7a" stroke-width="4.5" stroke-linecap="round" stroke-linejoin="round"/>
<circle cx="30.6" cy="29.78" r="3.4" fill="#14b8b3"/>
<text x="80" y="38" font-family="Helvetica,Arial,sans-serif" font-size="34" font-weight="600" fill="#1e2b3a" letter-spacing="-0.5">nautilus</text>
<text x="82" y="59" font-family="ui-monospace,Menlo,monospace" font-size="11" fill="#0d7d7a" letter-spacing="3.5">STREAMING ENGINE</text>
</g>
</svg>